<svg width="32" height="32" viewBox="0 0 200 240" fill="none" xmlns="http://www.w3.org/2000/svg">
  <!-- 猫头部轮廓 -->
  <path
    d="M100 20 
       C 70 20, 50 40, 45 70
       C 30 75, 15 85, 10 100
       C 5 115, 10 130, 20 140
       C 15 155, 20 170, 35 180
       C 50 195, 75 200, 100 200
       C 125 200, 150 195, 165 180
       C 180 170, 185 155, 180 140
       C 190 130, 195 115, 190 100
       C 185 85, 170 75, 155 70
       C 150 40, 130 20, 100 20 Z"
    stroke="#2563EB"
    stroke-width="4"
    fill="none"
    stroke-linecap="round"
    stroke-linejoin="round"
  />
  
  <!-- 左耳 -->
  <path
    d="M45 70 C 35 50, 30 30, 40 15 C 50 5, 65 15, 70 35"
    stroke="#2563EB"
    stroke-width="4"
    fill="none"
    stroke-linecap="round"
    stroke-linejoin="round"
  />
  
  <!-- 右耳 -->
  <path
    d="M155 70 C 165 50, 170 30, 160 15 C 150 5, 135 15, 130 35"
    stroke="#2563EB"
    stroke-width="4"
    fill="none"
    stroke-linecap="round"
    stroke-linejoin="round"
  />
  
  <!-- 左眼 -->
  <ellipse cx="70" cy="95" rx="14" ry="10" stroke="#1D4ED8" stroke-width="3" fill="none"/>
  <ellipse cx="70" cy="95" rx="6" ry="5" fill="#1D4ED8"/>
  
  <!-- 右眼 -->
  <ellipse cx="130" cy="95" rx="14" ry="10" stroke="#1D4ED8" stroke-width="3" fill="none"/>
  <ellipse cx="130" cy="95" rx="6" ry="5" fill="#1D4ED8"/>
  
  <!-- 鼻子 -->
  <path d="M95 115 L 100 122 L 105 115 Z" stroke="#2563EB" stroke-width="2" fill="none" stroke-linejoin="round"/>
  
  <!-- 嘴巴 -->
  <path d="M88 135 Q 100 142, 112 135" stroke="#2563EB" stroke-width="2.5" fill="none" stroke-linecap="round"/>
</svg>